<svg width="16" height="16" viewBox="0 0 16 16" fill="none" xmlns="http://www.w3.org/2000/svg">
<path d="M4.89431 6.72296L8.00178 3.61675L11.1105 6.72548L12.9176 4.91711L8.00178 0L3.08594 4.91585L4.89431 6.72296Z" fill="#F3BA2F"/>
<path d="M0 8.00057L1.80711 6.1922L3.61548 8.00057L1.80711 9.80768L0 8.00057Z" fill="#F3BA2F"/>
<path d="M4.89431 9.2771L8.00178 12.3846L11.1105 9.27583L12.9189 11.0817L8.00305 15.9988L3.08594 11.0855L4.89431 9.2771Z" fill="#F3BA2F"/>
<path d="M12.3845 8.00057L14.1916 6.1922L15.9999 7.99931L14.1916 9.80895L12.3845 8.00057Z" fill="#F3BA2F"/>
<path d="M9.83551 7.99942L8.00186 6.16451L6.6459 7.52047L6.4892 7.67591L6.16821 7.99689L8.00186 9.82927L9.83551 8.00068V7.99942Z" fill="#F3BA2F"/>
</svg>
