<svg width="16" height="16" viewBox="0 0 16 16" fill="none" xmlns="http://www.w3.org/2000/svg">
<path d="M12.5156 0H3.48438C1.56001 0 0 1.56001 0 3.48438V12.5156C0 14.44 1.56001 16 3.48438 16H12.5156C14.44 16 16 14.44 16 12.5156V3.48438C16 1.56001 14.44 0 12.5156 0Z" fill="#00F0FF"/>
<path d="M7.38363 6.3068H10.3711L13.4272 9.34344C13.626 9.54096 13.6271 9.86228 13.4293 10.0608L9.50991 14H6.43243L7.36283 13.0954L10.7788 9.701L7.40619 6.30652" fill="#1B1B1B"/>
<path d="M8.61178 9.69344H5.62434L2.56817 6.65676C2.36936 6.45924 2.36835 6.13796 2.56614 5.9394L6.4855 2H9.56298L8.63258 2.90453L5.21658 6.29896L8.58922 9.69344" fill="#1B1B1B"/>
</svg>
