<svg width="12" height="12" viewBox="0 0 12 12" fill="none" xmlns="http://www.w3.org/2000/svg">
<rect width="12" height="12" rx="2" fill="black"/>
<path d="M8.11191 6.48413V4H8.61123V6.48413H8.11191Z" fill="#999999"/>
<path d="M2.29277 7.22192H1.22232V4.73779H2.24973C2.74905 4.73779 3.04 5.00993 3.04 5.4356C3.04 5.71115 2.85314 5.88921 2.72381 5.9485C2.87819 6.01825 3.0758 6.17521 3.0758 6.50682C3.0758 6.9707 2.74905 7.22192 2.29277 7.22192ZM2.21021 5.1705H1.72164V5.74269H2.21021C2.42211 5.74269 2.54068 5.62754 2.54068 5.4565C2.54068 5.28566 2.42211 5.1705 2.21021 5.1705ZM2.24249 6.17882H1.72164V6.7894H2.24249C2.46887 6.7894 2.57648 6.64992 2.57648 6.48231C2.57648 6.31489 2.46867 6.17882 2.24249 6.17882Z" fill="white"/>
<path d="M4.59865 6.20315V7.22192H4.10285V6.20315L3.33411 4.73779H3.87647L4.35427 5.73908L4.82484 4.73779H5.36721L4.59865 6.20315Z" fill="white"/>
<path d="M6.78277 7.22192H5.71231V4.73779H6.73972C7.23904 4.73779 7.52999 5.00993 7.52999 5.4356C7.52999 5.71115 7.34313 5.88921 7.2138 5.9485C7.36818 6.01825 7.5658 6.17521 7.5658 6.50682C7.5658 6.9707 7.23904 7.22192 6.78277 7.22192ZM6.7002 5.1705H6.21163V5.74269H6.7002C6.9121 5.74269 7.03067 5.62754 7.03067 5.4565C7.03067 5.28566 6.9121 5.1705 6.7002 5.1705ZM6.73248 6.17882H6.21163V6.7894H6.73248C6.95886 6.7894 7.06647 6.64992 7.06647 6.48231C7.06647 6.31489 6.95886 6.17882 6.73248 6.17882Z" fill="white"/>
<path d="M10.2207 5.1705V7.22211H9.7214V5.1705H9.05322V4.73779H10.8889V5.1705H10.2207Z" fill="white"/>
</svg>
