<svg width="16" height="16" viewBox="0 0 16 16" fill="none" xmlns="http://www.w3.org/2000/svg">
<g clip-path="url(#clip0_34_1167)">
<path d="M15.7421 10.0262L12.2822 4.02494C11.5238 2.77374 9.67422 2.76094 8.94206 4.07806L5.30942 10.3193C4.63102 11.4637 5.46942 12.9005 6.82686 12.9005H14.1056C15.4758 12.9005 16.5005 11.4233 15.7421 10.0262Z" fill="#1266C5"/>
<path d="M10.752 10.4922L10.5389 10.1197C10.3392 9.77344 9.90014 9.02848 9.90014 9.02848L6.97278 3.94496C6.21438 2.81408 4.4179 2.72064 3.6595 4.14464L0.252777 10.0397C-0.452503 11.2774 0.385897 12.887 1.91614 12.9005H9.15518H12.2425H14.0787C12.2029 12.9139 11.6038 11.9424 10.752 10.4922Z" fill="#324CB2"/>
<path d="M10.7526 10.4922L10.5395 10.1197C10.3398 9.77346 9.90077 9.0285 9.90077 9.0285L8.01085 5.70178L5.29597 10.3328C4.61757 11.4771 5.45597 12.9146 6.81277 12.9146H9.14173H12.2291H14.0787C12.1894 12.9005 11.6038 11.9424 10.7526 10.4922Z" fill="url(#paint0_linear_34_1167)"/>
</g>
<defs>
<linearGradient id="paint0_linear_34_1167" x1="4.50325" y1="8.23192" x2="12.3881" y2="11.3323" gradientUnits="userSpaceOnUse">
<stop stop-color="#314999" stop-opacity="0"/>
<stop offset="1" stop-color="#182B68"/>
</linearGradient>
<clipPath id="clip0_34_1167">
<rect width="16" height="16" fill="white"/>
</clipPath>
</defs>
</svg>
